<?xml version="1.0" encoding="utf-8"?>
<!-- Generator: Adobe Illustrator 22.0.0, SVG Export Plug-In . SVG Version: 6.00 Build 0)  -->
<svg version="1.1" id="Calque_1" xmlns="http://www.w3.org/2000/svg" xmlns:xlink="http://www.w3.org/1999/xlink" x="0px" y="0px"
	 viewBox="0 0 162.3 24.2" style="enable-background:new 0 0 162.3 24.2;" xml:space="preserve">
<style type="text/css">
	.st0{fill:#930025;}
</style>
<title>logo</title>
<g id="Page-1">
	<g id="logo">
		<path id="Fill-2" class="st0" d="M20.4,16.8l-0.4,6.9H0.1v-0.2c0.6,0,2-0.2,2.5-0.4c0.8-0.3,1-0.9,1-1.7V3c0-0.7-0.2-1.3-1-1.7
			C2,1,0.7,0.9,0.1,0.9V0.6h11.5v0.2c-0.6,0-1.8,0.1-2.4,0.3c-0.8,0.3-1,0.9-1,1.7v17.4c0,2.7,0.6,3,3.8,3c2.1,0,3.9-0.1,4.7-0.8
			c1-1.1,2.9-4.3,3.5-5.7H20.4"/>
		<path id="Fill-3" class="st0" d="M20.7,23.7v-0.2c0.8,0,2.1-0.2,2.5-0.4c0.8-0.3,1-0.8,1-1.6V3c0-0.7-0.2-1.4-1-1.7
			c-0.6-0.2-1.8-0.4-2.5-0.4V0.6h19v5.6h-0.3c-0.4-1.5-2.6-4.9-4.2-5.1C34.4,1.1,33.1,1,32.1,1h-3.3v10.5h2.8c1.9,0,2.5-0.6,2.9-1
			c0.6-0.6,1.3-2.5,1.4-3.4h0.3v9.5h-0.3c-0.1-1-0.9-3.1-1.4-3.6c-0.4-0.5-1.1-1-2.9-1h-2.8v8.4c0,2.6,0.6,3,3.8,3
			c2.1,0,4.4,0,5.2-0.8c1.2-1.2,3-4.5,3.5-5.6h0.3l-0.4,6.7L20.7,23.7"/>
		<path id="Fill-4" class="st0" d="M70.3,6.7H70c-0.4-1.5-2.5-5.3-3.9-5.5C65.4,1.1,64.4,1,63.5,1H62v20.3c0,0.7,0.3,1.3,1,1.7
			c0.4,0.2,2.1,0.4,2.7,0.4v0.2h-12v-0.2c0.6,0,2.3-0.2,2.7-0.4c0.8-0.3,1-0.9,1-1.7V1h-1.4c-0.8,0-1.9,0-2.6,0.1
			c-1.4,0.2-3.5,4-3.9,5.5h-0.3v-6h21.1V6.7"/>
		<path id="Fill-5" class="st0" d="M71,23.7v-0.2c0.8,0,2.1-0.2,2.5-0.4c0.8-0.3,1-0.8,1-1.6V3c0-0.7-0.2-1.4-1-1.7
			C73,1.1,71.8,0.9,71,0.9V0.6h19v5.6h-0.3c-0.4-1.5-2.6-4.9-4.2-5.1C84.8,1.1,83.4,1,82.4,1h-3.3v10.5h2.8c1.9,0,2.5-0.6,2.9-1
			c0.6-0.6,1.3-2.5,1.4-3.4h0.3v9.5h-0.3c-0.1-1-0.9-3.1-1.4-3.6c-0.4-0.5-1.1-1-2.9-1h-2.8v8.4c0,2.6,0.6,3,3.8,3
			c2.1,0,4.4,0,5.2-0.8c1.2-1.2,3-4.5,3.5-5.6h0.3l-0.4,6.7L71,23.7"/>
		<path id="Fill-6" class="st0" d="M122.6,23.7h-11.9v-0.2c0.6,0,2.3-0.2,2.8-0.4c0.8-0.4,1.1-0.9,1.1-1.7V2.5l-8.5,20.8h-0.6
			c-0.3-1-1.2-3.5-1.7-4.7L97,3v15.3c0,2.6,0.4,3.8,1.1,4.4c0.6,0.5,2.8,0.6,3.4,0.7v0.2h-9.2v-0.2c0.6-0.1,2.3-0.1,3.1-0.6
			c0.8-0.6,1.1-1.9,1.1-4.4V4.5c0-1.4-0.3-2.3-1-2.9c-0.8-0.6-2.1-0.7-3-0.8V0.6h8.2l7.4,16.6l5.6-13.7c0.5-1.2,0.7-2.5,0.7-2.9h8.2
			v0.2c-0.6,0-1.9,0.2-2.5,0.4c-0.8,0.3-1,0.9-1,1.7v18.4c0,0.7,0.3,1.3,1,1.7c0.4,0.2,1.9,0.4,2.5,0.5L122.6,23.7"/>
		<path id="Fill-7" class="st0" d="M134.5,13.3h-2.1v8.1c0,0.7,0.2,1.4,1,1.7c0.4,0.2,1.7,0.3,2.6,0.4v0.2h-11.6v-0.2
			c0.6,0,2.1-0.2,2.5-0.4c0.8-0.3,1-0.9,1-1.6V3c0-0.7-0.2-1.4-1-1.7c-0.7-0.3-2-0.4-2.6-0.4V0.6H136c4.8,0,7.8,1.9,7.8,5.6
			C143.8,11,139.2,13.3,134.5,13.3L134.5,13.3L134.5,13.3z M134.1,1.1h-1.8v11.8h1.2c4.3,0,5.2-3.5,5.2-5.8
			C138.8,4.1,137.7,1.1,134.1,1.1z"/>
		<path id="Fill-8" class="st0" d="M154.1,24.1c-3.4,0-5.7-1.1-6.8-1.8l-1.1,1.7h-0.3l-0.2-8.2h0.3c1.7,4.3,4.1,7.9,8,7.9
			c3.2,0,4.6-2.3,4.6-4.7c0-2-1.3-3.5-3.6-4.4c-1.7-0.7-3.1-1.1-4.6-1.8c-2.7-1.2-4-3.3-4-6.2c0-3.6,3-6.5,7.4-6.5
			c2.7,0,4.9,0.8,6,1.7l1-1.5h0.3l0.1,7.8h-0.3c-1.3-3.9-3.3-7.6-7.2-7.6c-2.1,0-3.9,1.6-3.9,4c0,2,1.1,3.3,3.4,4.4
			c1.5,0.7,3.2,1.1,4.5,1.7c2.8,1.2,4.6,2.8,4.6,6.3C162.3,21.1,158.9,24.1,154.1,24.1"/>
	</g>
</g>
</svg>
