<?xml version="1.0" encoding="utf-8"?>
<!-- Generator: Adobe Illustrator 22.0.0, SVG Export Plug-In . SVG Version: 6.00 Build 0)  -->
<svg version="1.1" id="Calque_1" xmlns="http://www.w3.org/2000/svg" xmlns:xlink="http://www.w3.org/1999/xlink" x="0px" y="0px"
	 viewBox="0 0 510 290" style="enable-background:new 0 0 510 290;" xml:space="preserve">
<style type="text/css">
	.st0{fill:#FFFFFF;}
	.st1{fill:none;stroke:#1A171B;stroke-width:4;stroke-linecap:round;stroke-miterlimit:10;}
	.st2{fill:none;stroke:#1A171B;stroke-width:4;stroke-miterlimit:10;}
	.st3{fill:#FFFFFF;stroke:#1A171B;stroke-width:4;stroke-miterlimit:10;}
	.st4{fill:#FFFFFF;stroke:#1A171B;stroke-width:1.98;stroke-miterlimit:10;}
	.st5{fill:#950728;}
	.st6{fill:none;stroke:#1A171B;stroke-width:2.02;stroke-miterlimit:10;}
	.st7{fill:none;stroke:#1A171B;stroke-width:2;stroke-miterlimit:10;}
	.st8{fill:#1A171B;}
	.st9{fill:#FFFFFF;stroke:#1A171B;stroke-width:2;stroke-miterlimit:10;}
	.st10{fill:none;stroke:#1A171B;stroke-miterlimit:10;}
	.st11{fill:none;}
</style>
<title>abo-1jour</title>
<path class="st0" d="M176.4,211.4h18.2v37.5h-18.2V211.4z"/>
<path class="st1" d="M104.7,248.9h111.5"/>
<path class="st2" d="M194.6,212.1v36.8 M126.3,248.9v-36.8"/>
<path class="st3" d="M37.2,27.9h246.4c4.6,0,8.4,3.7,8.4,8.4v167.4c0,4.6-3.7,8.4-8.4,8.4H37.2c-4.6,0-8.4-3.7-8.4-8.4V36.3
	C28.9,31.7,32.6,27.9,37.2,27.9z"/>
<path class="st4" d="M39.4,38.5h242v134.2h-242V38.5z"/>
<path class="st3" d="M310.6,15h172.9v259.4H310.6V15z"/>
<path class="st5" d="M339.6,46.7l-0.4,6.2h-17.8v-0.2c0.8,0,1.5-0.1,2.2-0.3c0.6-0.2,1-0.8,0.9-1.5V34.3c0.1-0.7-0.3-1.3-0.9-1.5
	c-0.7-0.2-1.5-0.4-2.2-0.4v-0.2h10.3v0.2c-0.7,0-1.5,0.1-2.2,0.2c-0.6,0.2-1,0.8-0.9,1.5v15.6c0,2.4,0.5,2.7,3.4,2.7
	c1.9,0,3.5-0.1,4.2-0.7c1.2-1.6,2.3-3.3,3.1-5.1L339.6,46.7z M339.9,52.9v-0.2c0.8,0,1.5-0.1,2.3-0.3c0.6-0.2,1-0.8,0.9-1.4V34.3
	c0.1-0.7-0.3-1.3-0.9-1.5c-0.7-0.2-1.5-0.4-2.3-0.4v-0.2H357v5h-0.3c-0.4-1.4-2.3-4.4-3.8-4.5c-0.9-0.1-1.9-0.2-2.8-0.2h-3V42h2.5
	c1,0.1,1.9-0.2,2.6-0.9c0.7-0.9,1.1-2,1.3-3.1h0.3v8.5h-0.3c-0.2-1.1-0.6-2.2-1.3-3.2c-0.7-0.7-1.6-1.1-2.6-0.9h-2.5v7.5
	c0,2.4,0.5,2.7,3.4,2.7c1.9,0,3.9,0,4.7-0.7c1.2-1.5,2.3-3.2,3.1-5h0.3l-0.4,6L339.9,52.9z M384.4,37.6h-0.3
	c-0.4-1.3-2.2-4.8-3.5-4.9c-0.8-0.1-1.6-0.1-2.3-0.1H377v18.2c-0.1,0.7,0.3,1.3,0.9,1.5c0.8,0.2,1.6,0.3,2.5,0.4v0.2h-10.8v-0.2
	c0.8,0,1.6-0.2,2.5-0.3c0.6-0.2,1-0.8,0.9-1.5V32.6h-1.3c-0.8,0-1.6,0-2.3,0.1c-1.3,0.2-3.2,3.6-3.5,4.9h-0.3v-5.4h18.9L384.4,37.6z
	 M385.1,52.9v-0.2c0.8,0,1.5-0.1,2.3-0.3c0.6-0.2,1-0.8,0.9-1.4V34.3c0.1-0.7-0.3-1.3-0.9-1.5c-0.7-0.2-1.5-0.4-2.3-0.4v-0.2h17.1v5
	h-0.3c-0.4-1.4-2.3-4.4-3.8-4.5c-0.9-0.1-1.9-0.2-2.8-0.2h-3V42h2.5c1,0.1,1.9-0.2,2.6-0.9c0.7-0.9,1.1-2,1.3-3.1h0.3v8.5h-0.3
	c-0.2-1.1-0.6-2.2-1.3-3.2c-0.7-0.7-1.6-1.1-2.6-0.9h-2.5v7.5c0,2.4,0.5,2.7,3.4,2.7c1.9,0,3.9,0,4.7-0.7c1.2-1.5,2.3-3.2,3.1-5h0.3
	l-0.4,6L385.1,52.9z M431.3,52.9h-10.6v-0.2c0.8,0,1.7-0.1,2.5-0.4c0.6-0.2,1-0.9,1-1.5V33.9l-7.6,18.6H416
	c-0.3-0.9-1.1-3.1-1.5-4.2l-6.1-14V48c0,2.3,0.3,3.4,1,4c1,0.4,2,0.6,3.1,0.6v0.2h-8.3v-0.2c1,0,1.9-0.2,2.8-0.6c0.7-0.5,1-1.7,1-4
	V35.7c0.1-1-0.2-1.9-0.9-2.6c-0.8-0.5-1.7-0.7-2.7-0.7v-0.2h7.4l6.6,14.9l5-12.3c0.3-0.8,0.6-1.7,0.7-2.6h7.4v0.2
	c-0.7,0-1.5,0.2-2.2,0.4c-0.6,0.2-1,0.8-0.9,1.5v16.5c0,0.6,0.3,1.2,0.9,1.5c0.7,0.2,1.5,0.4,2.2,0.4L431.3,52.9z M442,43.6h-1.9
	v7.2c-0.1,0.7,0.3,1.3,0.9,1.5c0.8,0.2,1.5,0.3,2.3,0.3v0.2h-10.4v-0.2c0.8,0,1.5-0.1,2.2-0.3c0.6-0.2,1-0.8,0.9-1.5V34.3
	c0.1-0.7-0.3-1.3-0.9-1.5c-0.7-0.2-1.5-0.4-2.3-0.4v-0.2h10.5c4.3,0,7,1.7,7,5C450.4,41.5,446.3,43.6,442,43.6z M441.7,32.6h-1.6
	v10.6h1.1c3.9,0,4.7-3.2,4.7-5.2C445.9,35.3,444.9,32.6,441.7,32.6L441.7,32.6z M459.6,53.3c-2.1,0.1-4.3-0.5-6.1-1.6l-1,1.5h-0.3
	l-0.2-7.3h0.3c1.5,3.9,3.7,7.1,7.2,7.1c2.9,0,4.1-2,4.1-4.2c0-1.8-1.2-3.2-3.2-3.9c-1.5-0.6-2.8-1-4.1-1.6c-2.3-0.9-3.8-3.1-3.6-5.6
	c0-3.2,2.7-5.8,6.6-5.8c1.9,0,3.8,0.5,5.4,1.5l0.9-1.4h0.3l0.1,7h-0.3c-1.1-3.5-3-6.8-6.4-6.8c-1.9,0-3.5,1.5-3.5,3.4
	c0,0.1,0,0.1,0,0.2c0,1.8,1,3,3.1,3.9c1.4,0.6,2.8,1,4,1.5c2.5,1.1,4.1,2.5,4.1,5.7C466.9,50.6,463.9,53.3,459.6,53.3L459.6,53.3z"
	/>
<path class="st6" d="M322.1,90h144.1v82.7H322.1V90z"/>
<path class="st7" d="M322.1,78.4h40.3 M322.1,66.9h40.3 M374,78.4h40.4 M374,66.9h40.4 M425.9,78.4h40.3 M322.1,72.7h40.3 M374,72.7
	h40.4 M425.9,72.7h40.3 M425.9,66.9h40.3 M322.1,193.7h40.3 M322.1,182.2h40.3 M374,193.7h40.4 M374,182.2h40.4 M425.9,193.7h40.3
	 M322.1,188h40.3 M374,188h40.4 M425.9,188h40.3 M425.9,182.2h40.3 M322.1,205.2h40.3 M374,205.2h40.4 M425.9,205.2h40.3
	 M322.1,199.5h40.3 M374,199.5h40.4 M425.9,199.5h40.3 M322.1,216.8h40.3 M374,216.8h40.4 M425.9,216.8h40.3 M322.1,228.3h40.3
	 M374,228.3h40.4 M425.9,228.3h40.3 M322.1,222.5h40.3 M374,222.5h40.4 M425.9,222.5h40.3 M322.1,234.1h40.3 M374,234.1h40.4
	 M425.9,234.1h40.3 M322.1,245.6h144.1v17.3H322.1V245.6z"/>
<path class="st0" d="M232.9,182.7h40.3c3.3,0,6,2.7,6,6V270c0,3.3-2.7,6-6,6h-40.3c-3.3,0-6-2.7-6-6v-81.3
	C226.9,185.4,229.6,182.7,232.9,182.7z"/>
<path class="st8" d="M273.2,184.7c2.2,0,4,1.8,4,4V270c0,2.2-1.8,4-4,4h-40.3c-2.2,0-4-1.8-4-4v-81.3c0-2.2,1.8-4,4-4L273.2,184.7
	 M273.2,180.7h-40.3c-4.4,0-8,3.6-8,8V270c0,4.4,3.6,8,8,8h40.3c4.4,0,8-3.6,8-8v-81.3C281.2,184.3,277.6,180.7,273.2,180.7z"/>
<ellipse transform="matrix(0.1602 -0.9871 0.9871 0.1602 -52.2704 475.0635)" class="st9" cx="253.1" cy="268.2" rx="3.4" ry="3.3"/>
<path class="st10" d="M249.5,193.5h6.7"/>
<path class="st0" d="M233,197.2h40.1v64.6H233V197.2z"/>
<path class="st8" d="M272.1,198.2v62.6H234v-62.6H272.1 M274.1,196.2H232v66.6h42.1V196.2z"/>
<path class="st5" d="M265.6,222.8h-0.4c-0.5-1.8-3-6.4-4.7-6.7c-1-0.1-2.1-0.2-3.1-0.2h-1.8v24.6c-0.1,0.9,0.5,1.7,1.3,2
	c1.1,0.3,2.2,0.5,3.3,0.5v0.3h-14.6v-0.3c1.1-0.1,2.2-0.2,3.3-0.4c0.8-0.3,1.4-1.1,1.3-2V216h-1.8c-1.1,0-2.1,0-3.1,0.2
	c-1.8,0.2-4.3,4.9-4.8,6.7h-0.4v-7.3h25.5L265.6,222.8z"/>
<path class="st3" d="M46.2,170.4h125.5c2.6,0,4.8,2.1,4.8,4.8v97.4c0,2.6-2.1,4.8-4.8,4.8H46.2c-2.6,0-4.8-2.1-4.8-4.8v-97.4
	C41.4,172.6,43.6,170.4,46.2,170.4z"/>
<circle class="st9" cx="49.6" cy="223.9" r="3"/>
<path class="st9" d="M56.5,180.6h109.8v86.6H56.5V180.6z"/>
<path class="st5" d="M86.2,193.8h50.5v14.5h-0.7c-1-3.6-6-12.7-9.4-13.2c-2.1-0.2-4.1-0.3-6.2-0.3h-3.5v48.7c0,1.8,0.6,3.3,2.5,4
	c2.2,0.5,4.3,0.8,6.5,0.9v0.6H97v-0.6c2.2-0.2,4.4-0.5,6.5-1.1c1.6-0.6,2.6-2.3,2.5-4v-48.6h-3.6c-2.1,0-4.2,0.1-6.2,0.3
	c-3.5,0.5-8.4,9.6-9.4,13.2h-0.7L86.2,193.8z"/>
<path class="st11" d="M39.4,37.2h242V174h-242V37.2z"/>
<path class="st5" d="M116.8,57.9H204v25h-1.2c-1.7-6.1-10.3-21.9-16.3-22.7c-3.6-0.4-7.2-0.6-10.7-0.6h-6v84.1c0,3.1,1,5.7,4.3,7
	c1.8,0.7,8.8,1.4,11.3,1.5v1h-49.8v-1c2.5-0.1,9.6-1.1,11.3-1.8c3.2-1.4,4.3-3.9,4.3-7V59.6H145c-3.6,0-7.2,0.2-10.7,0.6
	c-6,0.8-14.5,16.6-16.2,22.7h-1.3L116.8,57.9z"/>
</svg>
