<svg width="198" height="64" viewBox="0 0 198 64" xmlns="http://www.w3.org/2000/svg"><title>logo</title><g id="Page-1" fill="none" fill-rule="evenodd"><g id="logo"><path d="M0 0h198v64H0V0z" id="Fill-1" fill="#940026"/><path d="M38.856 36.652l-.44 6.877h-19.82v-.238c.574-.033 2.023-.168 2.495-.37.81-.304 1.047-.91 1.047-1.652V22.865c0-.74-.203-1.314-1.046-1.685-.606-.27-1.886-.404-2.493-.44v-.234H30.09v.235c-.606.036-1.82.07-2.426.27-.842.27-1.045.945-1.045 1.687v17.427c0 2.696.606 3 3.808 3 2.057 0 3.91-.068 4.652-.81 1.046-1.078 2.933-4.348 3.506-5.662h.27" id="Fill-2" fill="#FFF"/><path d="M39.216 43.53v-.238c.775-.033 2.056-.202 2.528-.37.81-.27 1.045-.843 1.045-1.584V22.865c0-.74-.204-1.382-1.046-1.685-.607-.236-1.786-.404-2.528-.44v-.234H58.26V26.1h-.336c-.438-1.515-2.596-4.853-4.18-5.055-.81-.1-2.123-.17-3.168-.17h-3.304v10.518h2.83c1.89 0 2.496-.606 2.9-1.045.608-.573 1.28-2.528 1.417-3.404h.335v9.472h-.336c-.103-1.01-.945-3.068-1.417-3.573-.44-.506-1.08-1.045-2.9-1.045h-2.83v8.36c0 2.63.572 2.966 3.81 2.966 2.122 0 4.38.034 5.19-.775 1.18-1.215 2.966-4.45 3.472-5.563h.303l-.438 6.742H39.216" id="Fill-3" fill="#FFF"/><path d="M88.846 26.54h-.302c-.405-1.484-2.46-5.293-3.91-5.495-.776-.1-1.754-.135-2.597-.135h-1.483v20.26c0 .74.27 1.347 1.046 1.684.404.168 2.123.405 2.73.438v.237H72.296v-.238c.606-.033 2.292-.202 2.73-.37.81-.304 1.045-.944 1.045-1.686V20.91h-1.448c-.776 0-1.855.034-2.596.135-1.45.202-3.54 4.01-3.944 5.495h-.303v-6.034h21.066v6.034" id="Fill-4" fill="#FFF"/><path d="M89.538 43.53v-.238c.776-.033 2.057-.202 2.53-.37.808-.27 1.044-.843 1.044-1.584V22.865c0-.74-.202-1.382-1.045-1.685-.607-.236-1.787-.404-2.53-.44v-.234h19.047V26.1h-.337c-.44-1.515-2.596-4.853-4.18-5.055-.81-.1-2.124-.17-3.168-.17h-3.305v10.518h2.83c1.89 0 2.496-.606 2.9-1.045.607-.573 1.28-2.528 1.416-3.404h.34v9.472h-.34c-.1-1.01-.942-3.068-1.414-3.573-.44-.506-1.08-1.045-2.9-1.045h-2.83v8.36c0 2.63.572 2.966 3.808 2.966 2.124 0 4.383.034 5.19-.775 1.18-1.215 2.967-4.45 3.473-5.563h.303l-.438 6.742H89.538" id="Fill-5" fill="#FFF"/><path d="M141.104 43.53H129.24v-.238c.572-.033 2.325-.168 2.797-.404.775-.404 1.08-.944 1.08-1.72V22.394l-8.496 20.765h-.606c-.337-1.045-1.18-3.472-1.72-4.686l-6.81-15.573v15.27c0 2.594.373 3.808 1.114 4.448.573.472 2.798.64 3.405.674v.237h-9.236v-.238c.573-.067 2.29-.067 3.1-.64.776-.573 1.08-1.888 1.08-4.45v-13.82c0-1.382-.338-2.326-1.012-2.865-.81-.64-2.09-.74-3-.776v-.234h8.19l7.383 16.584 5.63-13.72c.506-1.213.708-2.494.74-2.864h8.193v.235c-.607.036-1.854.204-2.46.406-.843.27-1.045.91-1.045 1.652v18.37c0 .742.27 1.282 1.045 1.652.37.202 1.853.44 2.494.472v.237" id="Fill-6" fill="#FFF"/><path d="M153.015 33.18h-2.123v8.056c0 .742.236 1.382 1.045 1.686.404.168 1.72.337 2.562.37v.237h-11.63v-.238c.606-.033 2.056-.202 2.494-.37.81-.304 1.044-.91 1.044-1.652V22.865c0-.74-.202-1.382-1.044-1.685-.74-.27-1.956-.404-2.562-.44v-.234H154.5c4.752 0 7.82 1.92 7.82 5.595 0 4.788-4.585 7.08-9.305 7.08zm-.37-12.236h-1.753v11.764h1.18c4.314 0 5.225-3.54 5.225-5.798 0-2.933-1.045-5.966-4.652-5.966z" id="Fill-7" fill="#FFF"/><path d="M172.605 44c-3.405 0-5.663-1.078-6.776-1.82l-1.113 1.652h-.338l-.202-8.158h.303c1.652 4.315 4.08 7.888 7.99 7.888 3.202 0 4.55-2.258 4.55-4.686 0-2.022-1.348-3.54-3.606-4.38-1.72-.676-3.067-1.114-4.584-1.754-2.73-1.18-4.046-3.304-4.046-6.236 0-3.607 2.967-6.506 7.35-6.506 2.66 0 4.886.842 6.032 1.686l1.046-1.518h.336l.135 7.82h-.303c-1.28-3.943-3.303-7.55-7.18-7.55-2.123 0-3.91 1.618-3.91 4.01 0 2.024 1.112 3.338 3.438 4.384 1.516.707 3.168 1.146 4.483 1.72 2.765 1.246 4.552 2.763 4.552 6.336 0 4.112-3.405 7.112-8.157 7.112" id="Fill-8" fill="#FFF"/></g></g></svg>